<svg xmlns="http://www.w3.org/2000/svg" width="136" height="114" viewBox="0 0 136 114" fill="none">
  <path d="M61.8378 59.0687C61.8378 59.0687 42.3375 10.0687 6.33781 1.56872C-8.23528 -0.19738 14.2437 32.3572 19.694 39.9866C20.4395 41.0302 20.8378 42.2607 20.8378 43.5432V63.3842C20.8378 64.3576 21.5387 65.1897 22.498 65.3551L30.1932 66.6819C32.0006 66.9935 32.5978 69.5458 31.2387 70.7772C24.9048 76.5167 15.0262 89.3735 30.8378 104.569C51.1133 124.054 63.2025 98.8525 66.7417 89.6721C67.0979 88.7483 68.5755 88.7487 68.931 89.6727C72.468 98.8655 84.5583 124.127 104.837 104.638C120.649 89.4428 110.77 76.586 104.436 70.8466C103.077 69.6151 103.674 67.0629 105.482 66.7513L113.177 65.4244C114.136 65.259 114.837 64.427 114.837 63.4535V43.6126C114.837 42.3301 115.236 41.0995 115.981 40.0559C121.431 32.4265 143.91 -0.128044 129.337 1.63805C93.3375 10.1381 80.3373 54.5688 73.8372 59.138C70.3373 61.5983 68.2586 54.2965 70.8373 49.5688C76.064 39.9866 82.3373 34.5688 81.3373 30.0688C80.6671 27.0529 71.6685 37.243 67.9391 41.631C67.1085 42.6082 65.5869 42.5812 64.7981 41.5699L59.3373 34.5688" stroke="black" stroke-width="3" stroke-linecap="round"/>
</svg>