<svg xmlns="http://www.w3.org/2000/svg" width="113" height="113" viewBox="0 0 113 113" fill="none">
  <path d="M63 79.2645C63 79.2645 64.3758 92.5443 67.5 98.4998C69.1788 101.7 72.374 105.215 74.9712 107.782C76.2983 109.094 75.3809 111.5 73.5148 111.5H56H38.9852C37.1191 111.5 36.2017 109.094 37.5288 107.782C40.126 105.215 43.3212 101.7 45 98.4998C46.4165 95.7996 47.4735 91.5939 48.2059 87.8028C48.608 85.7214 45.4508 84.3735 43.8047 85.7093C39.3427 89.3303 33.6577 91.4998 27.4667 91.4998C13.1257 91.4998 1.5 79.8592 1.5 65.4998C1.5 51.1404 13.159 40 27.5 40C28.2166 40 28.9685 40.0786 29.7319 40.2079C31.6466 40.5322 33.3695 38.26 32.602 36.4761C30.0754 30.6035 29.7408 23.7804 32.1935 17.3333C36.0619 7.165 45.7322 1.51292 56 1.5C66.2678 1.51292 76.4381 7.165 80.3065 17.3333C82.7592 23.7804 82.4246 30.6035 79.898 36.4761C79.1305 38.26 80.8534 40.5322 82.7681 40.2079C83.5315 40.0786 84.2834 40 85 40C99.341 40 111 51.1404 111 65.4998C111 79.8592 99.3743 91.4998 85.0333 91.4998C79.6176 91.4998 74.5891 89.8397 70.4277 87" stroke="black" stroke-width="3" stroke-linecap="round"/>
</svg>