<svg xmlns="http://www.w3.org/2000/svg" width="302" height="413" viewBox="0 0 302 413" fill="none">
  <path d="M258.5 310.919C258.5 310.919 303.113 305.321 298.5 268.419C293.966 232.148 268.511 238.449 253.527 245.579C246.193 249.069 241.954 256.476 240.792 264.514C236.61 293.446 224.945 363.328 208 378.419C146.5 433.191 63.9999 402.994 33.9998 378.419C3.99983 353.845 3 205.419 3 205.419C3 205.419 28 257.919 125.5 251.919C223 245.919 244.786 218.419 235.5 193.419C229 175.919 170.378 158.419 121 158.419C59 158.419 38.9121 175.919 40.4998 191.919C43.7448 224.62 121 222.419 121 222.419C121 222.419 187 217.919 187 199.419C187 180.919 152.519 175.994 133.5 175.919C114.48 175.845 87.4998 180.919 87.4998 191.919C87.4998 205.419 123.712 202.731 143.5 193.419C158.5 186.361 66.75 182.919 73 142.919C76.125 122.919 78 102.419 121 87.9194C157.445 75.6299 160 51.4194 160 51.4194L164.5 10.9194C164.5 10.9194 187 58.9194 187 87.9194C187 103.504 170.084 110.919 154.5 110.919C139.5 110.919 121 122.919 121 122.919" stroke="black" stroke-width="10" stroke-linecap="round"/>
</svg>