<svg xmlns="http://www.w3.org/2000/svg" width="2605" height="1787" viewBox="0 0 2605 1787" fill="none">
  <path d="M15.5 1398H598.137C608.043 1398 617.613 1394.41 625.08 1387.9L696.943 1325.26C705.874 1317.47 711 1306.2 711 1294.35V56.5C711 33.8563 729.356 15.5 752 15.5H2273.6C2282.92 15.5 2291.96 18.6743 2299.24 24.4999L2574.13 244.69C2583.85 252.471 2589.5 264.244 2589.5 276.69V793.858C2589.5 805.702 2584.38 816.968 2575.45 824.755L2299.58 1065.4C2292.11 1071.91 2282.54 1075.5 2272.63 1075.5H1760C1737.36 1075.5 1719 1057.14 1719 1034.5V755C1719 732.356 1737.36 714 1760 714H2105.91C2116.25 714 2126.21 710.092 2133.79 703.06L2177.88 662.168C2186.25 654.409 2191 643.516 2191 632.108V448.863C2191 436.318 2185.26 424.464 2175.41 416.689L2133.17 383.326C2125.94 377.609 2116.98 374.5 2107.76 374.5H1714.5C1691.86 374.5 1673.5 392.856 1673.5 415.5V1730C1673.5 1752.64 1655.14 1771 1632.5 1771H1320C1297.36 1771 1279 1752.64 1279 1730V78.5C1279 55.8564 1260.64 37.5 1238 37.5H1163C1140.36 37.5 1122 55.8563 1122 78.5V1466.74C1122 1478.65 1116.82 1489.98 1107.8 1497.76L803.045 1761.03C795.598 1767.46 786.085 1771 776.243 1771H56.5C33.8563 1771 15.5 1752.64 15.5 1730V1592" stroke="black" stroke-width="31"/>
</svg>