<svg xmlns="http://www.w3.org/2000/svg" width="103" height="113" viewBox="0 0 103 113" fill="none">
  <path d="M32.1106 92.5889C32.1106 92.5889 32.1106 113.761 12.3855 110.736C5.70729 109.712 0.360105 103.528 1.71468 96.9087C4.25494 84.4959 18.6494 84.0567 24.3173 84.3793C25.5362 84.4487 26.6105 83.4929 26.6105 82.2721V16.2142C26.6105 15.2672 27.2746 14.4501 28.2015 14.2564L60.1106 7.58887L92.2402 1.53545C93.4715 1.30346 94.6105 2.24788 94.6105 3.50087V29.5032C94.6105 30.4321 93.971 31.2387 93.0666 31.4505L40.6544 43.7272C39.7501 43.9391 39.1106 44.7457 39.1106 45.6745V52.0441C39.1106 53.34 40.3241 54.2937 41.5833 53.9874L92.1378 41.6903C93.397 41.384 94.6105 42.3378 94.6105 43.6337V65.7374C94.6105 68.8099 91.8513 71.2094 88.7802 71.2984C82.2025 71.4891 72.1498 73.5294 70.0987 83.91C69.0461 89.2371 73.059 94.2731 78.3956 95.2765C97.8572 98.9358 100.611 78.0889 100.611 78.0889" stroke="black" stroke-width="3"/>
</svg>