<svg xmlns="http://www.w3.org/2000/svg" width="112" height="109" viewBox="0 0 112 109" fill="none">
  <path d="M62.226 79.0684L75.214 104.149C75.9034 105.48 74.9372 107.068 73.438 107.068H56.226H38.7769C37.1196 107.068 36.1563 105.164 37.1267 103.82C41.851 97.2789 51.7302 82.7837 49.7266 78.5684C47.1125 73.0684 31.7262 104.193 11.7266 90.5684C-0.110893 82.504 0.488106 70.6734 2.94861 62.3601C4.97147 55.5256 9.67294 49.9455 14.5345 44.7332L54.7546 2.12704C55.5502 1.28422 56.8934 1.29203 57.6792 2.14404L97.4182 45.2332C102.28 50.4455 106.981 56.0256 109.004 62.8601C111.465 71.1734 112.064 83.004 100.226 91.0684C90.5061 97.6901 81.2584 95.041 74.3197 90.5684" stroke="black" stroke-width="3" stroke-linecap="round"/>
</svg>