<svg xmlns="http://www.w3.org/2000/svg" width="114" height="109" viewBox="0 0 114 109" fill="none">
  <path d="M43.9532 27.8379L55.0338 2.69346C55.7484 1.07192 58.0629 1.11193 58.721 2.7572L72.4504 37.0807C72.7541 37.84 73.4895 38.3379 74.3073 38.3379H110.013C111.81 38.3379 112.695 40.5244 111.404 41.7747L84.2821 68.0353C83.7692 68.532 83.5599 69.2645 83.7331 69.9572L92.2955 104.207C92.7257 105.928 90.8686 107.315 89.3401 106.415L57.9826 87.9442C57.3486 87.5708 56.5608 87.5756 55.9314 87.9567L25.5389 106.363C24.0211 107.283 22.147 105.917 22.557 104.191L30.6855 69.9654C30.8511 69.268 30.6309 68.5354 30.1082 68.0449L2.1384 41.7963C0.816692 40.5559 1.69445 38.3379 3.50703 38.3379H40.4532" stroke="black" stroke-width="3" stroke-linecap="round"/>
</svg>