<svg xmlns="http://www.w3.org/2000/svg" width="122" height="126" viewBox="0 0 122 126" fill="none">
  <path d="M8.93671 103.209C8.93671 103.209 5.93671 116.139 15.9367 122.209C21.0389 125.307 26.2712 124.462 30.1727 122.892C34.6238 121.101 37.4002 116.905 39.2513 112.479L59.1783 64.8274C59.346 64.4264 59.6359 64.0917 60.0298 63.9078C61.9159 63.0273 67.9453 60.8194 72.9367 65.7095C78.9367 71.5877 79.4367 78.2095 79.4367 78.2095C79.4367 78.2095 93.6426 71.5026 101.937 74.7095C110.231 77.9164 116.437 94.2095 116.437 94.2095C116.437 94.2095 125.653 68.7095 114.437 44.2095C105.396 24.461 92.4125 16.7326 87.7166 14.4777C86.7399 14.0087 86.1976 12.8868 86.525 11.854L88.9755 4.12574C89.6529 1.98925 86.8418 0.525938 85.4803 2.30634L80.2627 9.12933C79.7642 9.78122 78.9235 10.0675 78.122 9.8911C73.3158 8.83342 55.9567 5.92701 36.4367 13.7095C13.4367 22.8794 2.93671 39.2095 2.93671 39.2095C2.93671 39.2095 20.4686 37.4981 27.9367 42.2095C35.4049 46.9208 40.4367 60.2095 40.4367 60.2095L49.4367 57.7095" stroke="black" stroke-width="3" stroke-linecap="round"/>
</svg>